<svg width="40" height="40" viewBox="0 0 40 40" fill="none" xmlns="http://www.w3.org/2000/svg">
<path d="M20.02 17.13C18.43 17.13 17.15 18.42 17.15 20C17.15 21.58 18.44 22.87 20.02 22.87C21.6 22.87 22.89 21.58 22.89 20C22.89 18.41 21.6 17.13 20.02 17.13ZM20.02 21.48C19.2 21.48 18.54 20.82 18.54 20C18.54 19.18 19.2 18.52 20.02 18.52C20.84 18.52 21.5 19.18 21.5 20C21.5 20.82 20.84 21.48 20.02 21.48Z" fill="white"/>
<path d="M26.03 22.45C26.13 22.25 26.34 22.12 26.57 22.15C27.75 22.12 28.69 21.13 28.65 19.94C28.62 18.8 27.69 17.88 26.55 17.85H26.43C26.26 17.85 26.11 17.76 26.02 17.63C26.02 17.58 26 17.53 25.98 17.49C25.9 17.29 25.94 17.06 26.1 16.92C26.11 16.92 26.18 16.84 26.19 16.83C27.01 15.97 26.97 14.61 26.11 13.8C25.7 13.4 25.15 13.19 24.57 13.21C23.99 13.23 23.44 13.48 23.05 13.9C22.96 13.99 22.83 14.04 22.7 14.04C22.57 14.04 22.44 13.99 22.34 13.89C22.23 13.77 22.17 13.61 22.19 13.45C22.16 12.31 21.24 11.39 20.1 11.36C19.53 11.36 18.98 11.56 18.57 11.95C18.15 12.35 17.91 12.89 17.91 13.47V13.59C17.91 13.76 17.82 13.91 17.69 14.01C17.64 14.01 17.59 14.03 17.55 14.06C17.35 14.14 17.12 14.1 16.98 13.94L16.91 13.87C16.05 13.06 14.69 13.09 13.87 13.96C13.06 14.82 13.09 16.18 13.96 17C14.16 17.23 14.13 17.59 13.9 17.79C13.8 17.88 13.67 17.92 13.54 17.92C12.35 17.92 11.39 18.88 11.39 20.07C11.39 21.26 12.35 22.22 13.54 22.22H13.66C13.79 22.22 13.92 22.27 14.01 22.36C14.21 22.56 14.21 22.89 14.01 23.09C14.01 23.09 14.01 23.09 14 23.1C14 23.1 13.93 23.17 13.92 23.18C13.11 24.04 13.14 25.4 14 26.22C14.87 27.04 16.23 26.99 17.05 26.12C17.05 26.12 17.05 26.12 17.06 26.11C17.29 25.91 17.65 25.94 17.85 26.17C17.94 26.28 17.99 26.41 17.98 26.55C18.01 27.7 18.93 28.62 20.08 28.64H20.13C21.3 28.64 22.25 27.7 22.27 26.53V26.41C22.27 26.28 22.32 26.15 22.41 26.06C22.61 25.86 22.94 25.86 23.14 26.06C23.14 26.06 23.14 26.06 23.15 26.07C23.15 26.07 23.22 26.14 23.23 26.15C24.09 26.96 25.45 26.92 26.27 26.06C27.09 25.2 27.04 23.84 26.18 23.02C26.18 23.02 26.17 23.01 26.16 23C26.02 22.85 25.98 22.64 26.06 22.45M24.78 21.89C24.47 22.6 24.62 23.42 25.16 23.97C25.16 23.97 25.22 24.03 25.23 24.04C25.53 24.33 25.55 24.8 25.26 25.11C24.97 25.41 24.48 25.42 24.18 25.13C24.18 25.13 24.17 25.12 24.16 25.11C24.16 25.11 24.1 25.05 24.1 25.04C23.35 24.31 22.14 24.33 21.41 25.08C21.07 25.43 20.88 25.9 20.87 26.39V26.5C20.87 26.7 20.78 26.89 20.64 27.03C20.49 27.16 20.3 27.24 20.1 27.24C19.68 27.22 19.35 26.86 19.36 26.44C19.35 25.68 18.87 25 18.16 24.72C17.45 24.41 16.62 24.56 16.07 25.1C16.07 25.1 16.01 25.16 16.01 25.17C15.72 25.47 15.25 25.49 14.94 25.2C14.64 24.9 14.63 24.42 14.92 24.12C14.92 24.12 14.93 24.11 14.94 24.1L15.01 24.03C15.74 23.28 15.73 22.07 14.97 21.34C14.62 21 14.15 20.8 13.65 20.8H13.53C13.11 20.8 12.78 20.46 12.78 20.05C12.79 19.62 13.15 19.28 13.58 19.29C13.59 19.29 13.61 19.29 13.62 19.29C14.38 19.28 15.06 18.8 15.33 18.09C15.65 17.35 15.47 16.5 14.89 15.94C14.59 15.65 14.58 15.18 14.87 14.88C15.16 14.58 15.65 14.57 15.95 14.87C15.95 14.87 16.01 14.93 16.02 14.94C16.53 15.45 17.29 15.61 17.97 15.37C18.03 15.37 18.1 15.35 18.16 15.32C18.85 15.02 19.3 14.34 19.31 13.59V13.48C19.33 13.06 19.67 12.74 20.09 12.75C20.51 12.77 20.83 13.11 20.82 13.53C20.83 14.58 21.69 15.42 22.74 15.41C23.23 15.41 23.69 15.21 24.04 14.88C24.04 14.88 24.1 14.82 24.11 14.81C24.4 14.51 24.87 14.49 25.18 14.78C25.33 14.92 25.41 15.11 25.42 15.31C25.42 15.52 25.34 15.73 25.19 15.88L25.12 15.95C24.61 16.46 24.45 17.22 24.69 17.9C24.69 17.96 24.71 18.03 24.74 18.09C25.04 18.78 25.72 19.23 26.47 19.24H26.58C27 19.25 27.33 19.6 27.32 20.01C27.3 20.43 26.95 20.76 26.53 20.75C25.78 20.75 25.1 21.2 24.8 21.89" fill="white"/>
</svg>
