<svg width="40" height="40" viewBox="0 0 40 40" fill="none" xmlns="http://www.w3.org/2000/svg">
<path d="M24.75 22.7H15.25C14.86 22.71 14.54 23.03 14.54 23.42V27.86C14.54 28.25 14.84 28.58 15.23 28.59C15.62 28.6 15.95 28.3 15.96 27.9V24.12L24.03 24.11V27.83C24.03 28.22 24.35 28.54 24.74 28.54C25.13 28.54 25.45 28.22 25.45 27.83V23.39C25.45 23 25.13 22.68 24.73 22.68" fill="white"/>
<path d="M17.06 21.51H22.95C23.85 21.51 24.57 20.77 24.57 19.88V16.49C24.57 15.59 23.84 14.87 22.94 14.87H20.51V14.21C21.25 13.93 21.63 13.09 21.34 12.35C21.06 11.61 20.22 11.23 19.48 11.52C18.74 11.81 18.36 12.64 18.65 13.38C18.8 13.77 19.1 14.07 19.49 14.22V14.88H17.06C16.16 14.88 15.44 15.61 15.44 16.51V19.9C15.44 20.8 16.17 21.52 17.07 21.52M20 12.45C20.23 12.45 20.42 12.64 20.42 12.87C20.42 13.1 20.23 13.29 20 13.29C19.77 13.29 19.58 13.1 19.58 12.87C19.58 12.64 19.77 12.45 20 12.45ZM16.8 16.51C16.8 16.36 16.92 16.25 17.06 16.25H22.95C23.09 16.25 23.21 16.37 23.21 16.51V19.9C23.21 20.04 23.1 20.16 22.96 20.16H17.07C16.93 20.16 16.81 20.05 16.81 19.91V16.52L16.8 16.51Z" fill="white"/>
</svg>
