<svg width="40" height="40" viewBox="0 0 40 40" fill="none" xmlns="http://www.w3.org/2000/svg">
<path d="M24.83 14.48C22.38 11.78 18.87 9.72999 17.19 11.24C16.87 11.53 16.65 11.93 16.57 12.42L14.19 18.27C13.77 19.32 12.65 22.04 12.25 23.05C11.45 24.71 13.13 26.72 14.94 26.15C15.07 26.12 15.43 26 15.56 25.97C15.59 25.96 15.61 25.96 15.64 25.95L16.17 27.6C16.38 28.22 16.82 28.73 17.4 29.02C17.74 29.18 18.11 29.27 18.48 29.27C18.74 29.27 19.01 29.23 19.26 29.14L21.11 28.52C21.73 28.32 22.23 27.88 22.53 27.3C22.82 26.71 22.87 26.04 22.65 25.42L22.2 24.06C23.75 23.61 25.21 23.18 26.26 22.88C26.28 22.88 26.29 22.87 26.31 22.87C26.71 22.81 27.04 22.64 27.3 22.4C28.96 20.87 27.27 17.18 24.83 14.48ZM21.27 26.67C21.15 26.92 20.94 27.1 20.67 27.19L18.81 27.81C18.55 27.9 18.27 27.88 18.02 27.76C17.77 27.64 17.58 27.42 17.49 27.15L17.02 25.75L20.91 24.62L21.33 25.87C21.42 26.14 21.4 26.42 21.27 26.67ZM14.78 24.81C13.97 25.18 13.08 24.42 13.47 23.54L14.11 21.95C14.69 20.49 15.94 17.37 16.92 14.91C17.42 16.25 18.37 17.75 19.65 19.16C20.89 20.53 22.24 21.6 23.5 22.24C20.6 23.1 16.9 24.19 14.78 24.81ZM26.35 21.37H26.34C26.28 21.44 26.18 21.48 26.01 21.51C24.98 21.65 22.8 20.56 20.69 18.22C18.7 16.03 17.86 13.95 17.92 12.88C17.93 12.59 18 12.39 18.13 12.28C18.25 12.17 18.43 12.12 18.66 12.12C19.69 12.12 21.74 13.16 23.79 15.42C26.3 18.19 26.98 20.8 26.35 21.37Z" fill="white"/>
</svg>
