<svg width="40" height="40" viewBox="0 0 40 40" fill="none" xmlns="http://www.w3.org/2000/svg">
<mask id="mask0_17_47" style="mask-type:luminance" maskUnits="userSpaceOnUse" x="5" y="5" width="30" height="30">
<path d="M35 5H5V35H35V5Z" fill="white"/>
</mask>
<g mask="url(#mask0_17_47)">
<path d="M19.61 28.65C14.61 28.65 10.56 24.6 10.56 19.6C10.56 14.6 14.61 10.55 19.61 10.55C24.61 10.55 28.66 14.6 28.66 19.6C28.66 24.6 24.61 28.65 19.61 28.65ZM19.61 12.14C15.49 12.14 12.15 15.48 12.15 19.6C12.15 23.72 15.49 27.06 19.61 27.06C23.73 27.06 27.07 23.72 27.07 19.6C27.07 15.48 23.73 12.14 19.61 12.14Z" fill="white"/>
<path d="M19.4 24.63C19.3 24.63 19.2 24.61 19.1 24.57C19 24.53 18.92 24.47 18.84 24.4C18.76 24.33 18.7 24.24 18.66 24.14C18.62 24.04 18.6 23.94 18.6 23.83C18.6 23.73 18.62 23.63 18.66 23.53C18.75 23.34 18.9 23.18 19.1 23.09C19.29 23.01 19.51 23.01 19.7 23.09C19.8 23.13 19.88 23.19 19.96 23.27C20.26 23.58 20.26 24.08 19.96 24.39C19.88 24.46 19.8 24.51 19.7 24.56C19.6 24.6 19.5 24.62 19.39 24.62" fill="white"/>
<path d="M19.41 21.81C19.22 21.81 19.04 21.75 18.91 21.62C18.61 21.18 18.52 20.63 18.67 20.12C18.81 19.64 19.12 19.24 19.54 18.98C19.76 18.83 20 18.7 20.24 18.59C20.61 18.41 20.92 18.1 21.1 17.72C21.24 17.29 21.13 16.82 20.8 16.51C20.28 16.06 19.55 15.95 18.92 16.23C18.49 16.44 18.17 16.81 18.03 17.27C17.9 17.66 17.48 17.87 17.09 17.73C16.72 17.61 16.51 17.22 16.61 16.84C17.11 15.16 18.89 14.2 20.57 14.7C21.04 14.84 21.47 15.09 21.83 15.42C22.59 16.14 22.86 17.25 22.5 18.23C22.3 18.75 21.95 19.19 21.51 19.53C21.3 19.68 21.08 19.82 20.86 19.94C20.74 20.01 20.63 20.07 20.52 20.14C20.43 20.2 20.34 20.25 20.26 20.32C20.24 20.33 20.23 20.35 20.21 20.36C20.2 20.39 20.19 20.42 20.19 20.45C20.14 20.86 20.26 21.36 19.87 21.65C19.74 21.74 19.59 21.8 19.43 21.8" fill="white"/>
</g>
</svg>
