<svg width="40" height="40" viewBox="0 0 40 40" fill="none" xmlns="http://www.w3.org/2000/svg">
<mask id="mask0_17_57" style="mask-type:luminance" maskUnits="userSpaceOnUse" x="12" y="12" width="16" height="16">
<path d="M27.59 12.41H12.41V27.6H27.59V12.41Z" fill="white"/>
</mask>
<g mask="url(#mask0_17_57)">
<path d="M13.09 12.41H26.91C27.28 12.41 27.59 12.71 27.59 13.09V18.56C27.59 18.93 27.29 19.24 26.91 19.24H13.09C12.72 19.24 12.41 18.94 12.41 18.56V13.09C12.41 12.72 12.71 12.41 13.09 12.41ZM26.35 13.65H13.65V18H26.35V13.65Z" fill="white"/>
<path d="M13.09 20.77H18.56C18.93 20.77 19.24 21.07 19.24 21.45V26.92C19.24 27.29 18.94 27.6 18.56 27.6H13.09C12.72 27.6 12.41 27.3 12.41 26.92V21.45C12.41 21.08 12.71 20.77 13.09 20.77ZM18 22.01H13.65V26.36H18V22.01Z" fill="white"/>
<path d="M21.44 20.77H26.91C27.28 20.77 27.59 21.07 27.59 21.45V26.92C27.59 27.29 27.29 27.6 26.91 27.6H21.44C21.07 27.6 20.76 27.3 20.76 26.92V21.45C20.76 21.08 21.06 20.77 21.44 20.77ZM26.35 22.01H22V26.36H26.35V22.01Z" fill="white"/>
</g>
</svg>
