<svg width="40" height="40" viewBox="0 0 40 40" fill="none" xmlns="http://www.w3.org/2000/svg">
<path d="M26.18 19.24V23.69C26.18 25.85 24.42 27.6 22.26 27.6H15.2C14.39 27.6 13.61 27.35 12.94 26.88C11.91 26.15 11.29 24.95 11.29 23.69V16.31C11.29 14.15 13.05 12.4 15.21 12.4H22.27C22.81 12.4 23.61 12.45 24.3 12.88C24.63 13.08 24.73 13.51 24.53 13.84C24.32 14.17 23.9 14.27 23.56 14.07C23.27 13.88 22.85 13.8 22.27 13.8H15.21C13.82 13.8 12.69 14.93 12.69 16.31V23.69C12.69 24.5 13.09 25.27 13.75 25.74C14.18 26.04 14.68 26.2 15.2 26.2H22.26C23.65 26.2 24.78 25.07 24.78 23.69V19.24C24.78 18.85 25.09 18.54 25.48 18.54C25.87 18.54 26.18 18.85 26.18 19.24Z" fill="white"/>
<path d="M18.07 23.44H18.06C17.87 23.44 17.69 23.36 17.57 23.22L14.85 20.35C14.58 20.07 14.6 19.63 14.88 19.36C15.16 19.09 15.6 19.11 15.87 19.39L18.1 21.74L18.17 21.67L27.53 12.59C27.81 12.32 28.25 12.33 28.52 12.6C28.79 12.88 28.78 13.32 28.51 13.59L18.57 23.24C18.44 23.37 18.26 23.44 18.08 23.44H18.07Z" fill="white"/>
</svg>
