<svg width="40" height="40" viewBox="0 0 40 40" fill="none" xmlns="http://www.w3.org/2000/svg">
<mask id="mask0_17_2" style="mask-type:luminance" maskUnits="userSpaceOnUse" x="13" y="11" width="14" height="18">
<path d="M26.93 11.29H13.07V28.71H26.93V11.29Z" fill="white"/>
</mask>
<g mask="url(#mask0_17_2)">
<path d="M24.36 17.54V15.65C24.36 14.49 23.9 13.37 23.08 12.56C22.26 11.74 21.15 11.29 20 11.29C17.59 11.29 15.64 13.24 15.64 15.65V17.54C14.16 17.9 13.07 19.23 13.06 20.82V27.94C13.06 28.37 13.41 28.71 13.83 28.71H26.16C26.59 28.71 26.93 28.37 26.93 27.94V20.82C26.92 19.23 25.83 17.91 24.36 17.54ZM17.04 15.65C17.04 14.86 17.35 14.11 17.9 13.55C19.06 12.4 20.94 12.4 22.09 13.55C22.65 14.11 22.96 14.86 22.96 15.65V17.43H17.04V15.65ZM25.53 27.31H14.46V20.82C14.46 19.72 15.35 18.83 16.45 18.83H23.54C24.64 18.83 25.53 19.72 25.53 20.82V27.31Z" fill="white"/>
</g>
</svg>
