<svg width="40" height="40" viewBox="0 0 40 40" fill="none" xmlns="http://www.w3.org/2000/svg">
<path d="M26.58 12.25C26.31 12.13 25.99 12.18 25.76 12.38C25.76 12.38 25.07 12.96 23.14 12.96C22.15 12.91 21.18 12.66 20.28 12.23C19.21 11.72 18.05 11.44 16.86 11.39C14.27 11.39 13.29 12.29 13.19 12.39C13.05 12.53 12.97 12.72 12.97 12.92V27.83C12.96 28.25 13.28 28.59 13.7 28.61C14.12 28.62 14.46 28.3 14.48 27.88C14.48 27.86 14.48 27.85 14.48 27.83L14.46 22.22C15.21 21.89 16.03 21.74 16.84 21.78C17.83 21.83 18.8 22.08 19.7 22.51C20.77 23.02 21.93 23.3 23.12 23.35C25.71 23.35 26.69 22.45 26.79 22.35C26.93 22.21 27.01 22.02 27.01 21.82L27.03 12.92C27.03 12.63 26.85 12.36 26.58 12.24M25.5 21.41C24.75 21.74 23.93 21.88 23.12 21.84C22.13 21.79 21.16 21.54 20.26 21.11C19.19 20.61 18.03 20.32 16.84 20.28C16.03 20.27 15.23 20.38 14.46 20.61L14.48 13.33C15.23 13 16.05 12.86 16.87 12.9C17.86 12.95 18.83 13.2 19.73 13.63C20.8 14.14 21.96 14.42 23.15 14.47C23.96 14.48 24.76 14.37 25.53 14.15L25.51 21.43L25.5 21.41Z" fill="white"/>
</svg>
